<?xml version="1.0" encoding="UTF-8"?>
<svg version="1.1" xmlns="http://www.w3.org/2000/svg" width="1236" height="2460">
<path d="M0 0 C36.96899727 -0.06881258 73.93798481 -0.12160289 110.90703328 -0.15319599 C115.28120263 -0.15694767 119.65537185 -0.16083068 124.02954102 -0.16479492 C124.90028262 -0.16558185 125.77102423 -0.16636878 126.66815195 -0.16717956 C140.72837962 -0.18019893 154.78857013 -0.20383345 168.84877583 -0.23145839 C183.29834348 -0.25960949 197.7478918 -0.27619667 212.19748574 -0.28226548 C221.09860911 -0.2863619 229.99962739 -0.29925374 238.90071837 -0.3237494 C245.02189697 -0.33972671 251.14302201 -0.34437354 257.2642199 -0.34050413 C260.78478157 -0.33860102 264.3051609 -0.34131398 267.82568932 -0.35761642 C325.79472861 -0.58620165 374.75677011 19.24881676 417 59 C417.65871094 59.61617187 418.31742188 60.23234375 418.99609375 60.8671875 C452.19660748 92.91756796 474.40818755 143.12656668 475.25076034 189.17506199 C475.26119571 191.7144912 475.26101616 194.25397977 475.251849 196.79341388 C475.25396355 198.2273084 475.25695307 199.66120184 475.26072434 201.09509296 C475.26852486 205.01318955 475.26401641 208.93118696 475.25738853 212.84928207 C475.25237445 217.13613525 475.25905426 221.42297371 475.26419219 225.70982456 C475.27162305 233.24459099 475.27164253 240.77932914 475.26680271 248.31409726 C475.25959306 259.59399185 475.26392906 270.87386211 475.27048406 282.15375606 C475.28131546 301.37940909 475.28264102 320.60505232 475.27878571 339.83070755 C475.27490998 359.3137932 475.27536365 378.79687155 475.2810955 398.27995682 C475.28145433 399.51055857 475.28181316 400.74116032 475.28218286 402.00905303 C475.28365776 407.02111504 475.28516216 412.03317704 475.28670432 417.04523904 C475.3010519 463.73048562 475.30539262 510.41572696 475.3031559 557.10097504 C475.30312283 557.79240293 475.30308975 558.48383081 475.30305568 559.19621106 C475.30292137 561.9954745 475.30278622 564.79473793 475.3026503 567.59400137 C475.30227513 575.32665957 475.30191746 583.05931777 475.30158257 590.79197598 C475.30155186 591.49013186 475.30152114 592.18828775 475.3014895 592.90759988 C475.30011521 624.55885545 475.30264617 656.21011025 475.30610864 687.8613656 C475.30657188 692.09611808 475.30702374 696.33087057 475.30747276 700.56562305 C475.30754704 701.26564951 475.30762132 701.96567598 475.30769785 702.68691536 C475.30784801 704.10211204 475.30799812 705.51730871 475.30814821 706.93250539 C475.30852429 710.4760983 475.30890175 714.01969122 475.3092793 717.56328414 C475.3093915 718.61717674 475.3093915 718.61717674 475.30950597 719.69236009 C475.30988445 723.24529772 475.31026437 726.79823535 475.31064692 730.35117298 C475.31421499 763.50869845 475.31707937 796.66622395 475.31923962 829.82374954 C475.31931047 830.90740726 475.31931047 830.90740726 475.31938276 832.01295706 C475.32237734 878.04554089 475.32225261 924.07812413 475.31981884 970.11070798 C475.31969925 972.37407689 475.31958087 974.63744579 475.31946275 976.90081469 C475.31859133 993.56114083 475.31766073 1010.22146697 475.31671212 1026.88179311 C475.31662573 1028.40118498 475.31653936 1029.92057685 475.316453 1031.43996872 C475.31636656 1032.95998117 475.31628012 1034.47999363 475.31619367 1036.00000608 C475.31615088 1036.7526322 475.31610809 1037.50525832 475.316064 1038.28069129 C475.31584761 1042.08355198 475.31563017 1045.88641266 475.31541077 1049.68927335 C475.31127207 1121.51766294 475.31019511 1193.34604959 475.3225708 1265.17443848 C475.32270108 1265.93068762 475.32283137 1266.68693677 475.3229656 1267.46610256 C475.32691752 1290.334731 475.33127708 1313.20335936 475.33573675 1336.0719877 C475.34061286 1361.07825886 475.3454468 1386.08453002 475.3500185 1411.09080124 C475.35015527 1411.83735672 475.35029204 1412.5839122 475.35043296 1413.35309058 C475.35898821 1460.11175304 475.36389138 1506.87041467 475.36472607 1553.62907791 C475.36473934 1554.35130329 475.36475261 1555.07352867 475.36476628 1555.81763967 C475.36534162 1587.53663269 475.3650568 1619.25562565 475.36384757 1650.97461866 C475.36338837 1663.02915453 475.36299612 1675.08369041 475.36263681 1687.13822629 C475.36255255 1689.96010136 475.36246328 1692.78197642 475.36236999 1695.60385149 C475.36131463 1727.95947597 475.36239227 1760.3150983 475.37004495 1792.67072201 C475.37020959 1793.36827869 475.37037423 1794.06583537 475.37054387 1794.78453013 C475.37320208 1806.00521025 475.3760212 1817.22589034 475.37884789 1828.44657042 C475.39073643 1875.69743442 475.39177422 1922.94828484 475.37953053 1970.19915006 C475.37827868 1975.19757967 475.3770752 1980.1960093 475.37590981 1985.19443893 C475.37561951 1986.42114713 475.37532922 1987.64785533 475.37503013 1988.9117365 C475.37070351 2008.34128261 475.37643769 2027.77081219 475.38635 2047.2003557 C475.39588354 2066.3020961 475.39471706 2085.40381096 475.38214377 2104.50554987 C475.37509071 2115.70587941 475.37622805 2126.90613558 475.38949216 2138.1064599 C475.39748317 2145.54740976 475.39457105 2152.98830413 475.38284252 2160.4292489 C475.37649969 2164.64572732 475.37472452 2168.86206091 475.38640973 2173.07853121 C475.42827559 2189.25444046 475.42487819 2205.10818544 472 2221 C471.79660472 2221.99177834 471.59320945 2222.98355667 471.38365068 2224.0053889 C470.92338248 2226.17273676 470.39600788 2228.30037028 469.8125 2230.4375 C469.60383301 2231.20787598 469.39516602 2231.97825195 469.18017578 2232.77197266 C460.10156853 2264.88082272 441.65362747 2298.07758287 416 2320 C415.34 2320 414.68 2320 414 2320 C414 2320.66 414 2321.32 414 2322 C388.85123911 2345.6421531 354.67062596 2360.89313152 321 2367 C320.10480487 2367.16734878 319.20960973 2367.33469756 318.28728747 2367.50711751 C306.90377305 2369.39268325 295.58371914 2369.349397 284.07305908 2369.40692139 C281.75782184 2369.42525267 279.44259033 2369.44431921 277.12736464 2369.46405458 C270.79885513 2369.51515065 264.47032649 2369.55348608 258.14171213 2369.58891541 C254.08649427 2369.6120057 250.03131358 2369.63955116 245.97613001 2369.66797018 C177.21066347 2370.14738283 108.44374175 2370.18263224 39.67690227 2370.20086934 C30.94605809 2370.20325643 22.21521451 2370.2068598 13.48437081 2370.2105653 C-16.61441876 2370.22330478 -46.71320808 2370.23406332 -76.81200027 2370.2375679 C-78.67011731 2370.23778949 -80.52823435 2370.23801128 -82.38635139 2370.23823325 C-84.24753788 2370.23845385 -86.10872437 2370.23867434 -87.96991086 2370.2388947 C-91.7006437 2370.23933713 -95.43137654 2370.23978428 -99.16210938 2370.24023438 C-100.54942371 2370.24039846 -100.54942371 2370.24039846 -101.96476459 2370.24056586 C-132.21716079 2370.24422819 -162.46953353 2370.26031519 -192.7219207 2370.28342474 C-225.00834599 2370.30804212 -257.29475779 2370.32174011 -289.58119273 2370.32293582 C-293.12147824 2370.32310721 -296.66176375 2370.3233226 -300.20204926 2370.32357025 C-301.50881721 2370.3236539 -301.50881721 2370.3236539 -302.84198451 2370.32373925 C-316.77354101 2370.32488308 -330.70507266 2370.33583966 -344.63662079 2370.35045731 C-358.58540165 2370.36484295 -372.53415088 2370.36804605 -386.48293713 2370.36001733 C-394.7393661 2370.3555832 -402.9956924 2370.35933441 -411.25210774 2370.37525584 C-417.43393974 2370.38623718 -423.61566746 2370.38130474 -429.7974976 2370.37048396 C-432.28075632 2370.36853718 -434.76402555 2370.37155767 -437.24726954 2370.38032833 C-457.00100982 2370.44563816 -476.47818762 2369.13369505 -495.6875 2364.25 C-497.24525146 2363.86050171 -497.24525146 2363.86050171 -498.83447266 2363.46313477 C-532.6354227 2354.77582942 -563.58825058 2338.78448427 -590 2316 C-590.87527344 2315.25492188 -591.75054688 2314.50984375 -592.65234375 2313.7421875 C-605.33878147 2302.63891589 -617.08553246 2290.64545939 -627 2277 C-627.76570312 2275.95585937 -628.53140625 2274.91171875 -629.3203125 2273.8359375 C-657.69518766 2233.99247169 -672.46893809 2187.52848847 -672.19853973 2138.68744278 C-672.19504287 2136.67487609 -672.19247359 2134.66230762 -672.19074231 2132.64973864 C-672.1850826 2128.29647355 -672.17309311 2123.94328875 -672.15615803 2119.59005305 C-672.12855054 2112.46545107 -672.11531088 2105.34086103 -672.10383177 2098.21621728 C-672.08835327 2089.19673635 -672.06939033 2080.1772747 -672.04624821 2071.15781015 C-672.00177931 2053.80572995 -671.98336398 2036.45369252 -671.97621155 2019.10155487 C-671.97562339 2017.74430409 -671.97503221 2016.38705331 -671.97443806 2015.02980253 C-671.97204491 2009.50904773 -671.96974102 2003.9882929 -671.96761364 1998.46753799 C-671.96158976 1983.13272338 -671.95001423 1967.79791347 -671.93828125 1952.46310234 C-671.93535733 1948.62613913 -671.93249509 1944.78917586 -671.92963088 1940.9522126 C-671.92611587 1936.24677857 -671.92259792 1931.54134454 -671.91905627 1926.83591053 C-671.91038839 1915.3138014 -671.90193396 1903.79169212 -671.89359856 1892.26958275 C-671.89298862 1891.42659546 -671.89237867 1890.58360816 -671.89175025 1889.7150758 C-671.88863826 1885.41296626 -671.88552905 1881.11085672 -671.88242082 1876.80874718 C-671.86020049 1846.06128725 -671.83760852 1815.3138276 -671.81480408 1784.5663681 C-671.79229117 1754.21045698 -671.7699468 1723.85454574 -671.74781799 1693.49863434 C-671.74712519 1692.54835573 -671.74643238 1691.59807712 -671.74571858 1690.61900219 C-671.73938894 1681.9369319 -671.73306132 1673.25486161 -671.7267361 1664.57279131 C-671.71102738 1643.01085484 -671.69529355 1621.4489184 -671.67954254 1599.88698196 C-671.67846786 1598.41578181 -671.67846786 1598.41578181 -671.67737147 1596.91486044 C-671.64270065 1549.45479614 -671.60774011 1501.99473204 -671.57275391 1454.53466797 C-671.56064595 1438.10955811 -671.54853929 1421.68444825 -671.53643799 1405.25933838 C-671.53568724 1404.24035044 -671.53493649 1403.22136249 -671.534163 1402.17149613 C-671.49912232 1354.60839598 -671.46429037 1307.04529569 -671.42951068 1259.48219535 C-671.42724674 1256.3861339 -671.4249827 1253.29007244 -671.42271865 1250.19401098 C-671.40771208 1229.67252823 -671.39270908 1209.15104546 -671.37770845 1188.6295627 C-671.34787278 1147.81315422 -671.31801621 1106.99674575 -671.28814522 1066.1803373 C-671.28672338 1064.23750253 -671.28530156 1062.29466775 -671.28387975 1060.35183298 C-671.22004973 973.13136507 -671.15597684 885.91089734 -671.09179688 798.69042969 C-671.0911972 797.8754687 -671.09059752 797.06050772 -671.08997967 796.22085095 C-671.06000139 755.48056729 -671.03000916 714.74028364 -671 674 C-669.96187066 674.00016235 -668.92374132 674.0003247 -667.85415351 674.00049198 C-622.03908387 674.00726265 -576.22402174 674.00650802 -530.40896606 673.9680481 C-529.3663339 673.967176 -529.3663339 673.967176 -528.30263846 673.96628629 C-513.19160891 673.9536025 -498.08058086 673.93958946 -482.96955382 673.92420971 C-475.55766502 673.91667409 -468.14577596 673.90943178 -460.73388672 673.90234375 C-459.99636751 673.90163346 -459.25884831 673.90092317 -458.49898004 673.90019136 C-434.65176366 673.87736183 -410.80459267 673.87385056 -386.95736781 673.88050198 C-362.42365577 673.88724177 -337.89003015 673.87420343 -313.35634391 673.83675384 C-309.88042711 673.83145711 -306.40451001 673.82638332 -302.92859268 673.82144547 C-302.24457273 673.82046685 -301.56055279 673.81948824 -300.85580496 673.81847997 C-289.90454096 673.80338295 -278.95338087 673.80875156 -268.00211854 673.82203486 C-256.95628823 673.83498661 -245.91062461 673.8252801 -234.86482488 673.79483847 C-228.89453732 673.77902484 -222.9246523 673.7724742 -216.95436859 673.79260826 C-167.53178917 673.94557386 -112.0267056 666.29190828 -74 631 C-73.2059375 630.32195313 -72.411875 629.64390625 -71.59375 628.9453125 C-67.34167893 625.30270495 -63.52871648 621.51257798 -59.92578125 617.23046875 C-58.50909097 615.5896368 -57.03972293 613.99392275 -55.54296875 612.42578125 C-28.23951634 583.79426392 -15.55249636 547.90844617 -5.67107797 510.34394467 C-5.17780154 508.62102615 -4.61910596 506.91650066 -4.02475142 505.22578704 C-0.50518899 494.60343668 -0.43325978 484.65122758 -0.48101807 473.56228638 C-0.47513428 471.51254666 -0.4675028 469.46281135 -0.458287 467.41308391 C-0.43811175 461.81225908 -0.44255845 456.21168878 -0.45119452 450.61084437 C-0.45615311 444.55919875 -0.43803738 438.50761594 -0.42277527 432.45599365 C-0.39949322 421.98164736 -0.39057401 411.50735919 -0.39188385 401.03299332 C-0.39319615 390.05324129 -0.38622621 379.07354537 -0.36830902 368.09380722 C-0.36664194 367.06796779 -0.36664194 367.06796779 -0.36494118 366.02140433 C-0.35925372 362.54794736 -0.35341939 359.07449066 -0.34752855 355.60103403 C-0.30611879 331.02878728 -0.28310658 306.45655455 -0.27099609 281.88427734 C-0.25919208 258.01967784 -0.23900347 234.15510936 -0.20751953 210.29052734 C-0.20655158 209.55430509 -0.20558363 208.81808284 -0.20458635 208.05955082 C-0.19485614 200.66578572 -0.18495607 193.27202086 -0.17493158 185.87825616 C-0.15451627 170.81767291 -0.13523431 155.75708828 -0.11663818 140.69650269 C-0.11578185 140.00411322 -0.11492553 139.31172375 -0.11404325 138.59835278 C-0.05703487 92.39891857 -0.02652488 46.19946072 0 0 Z " fill="#FFFFFF" transform="translate(716,48)"/>
</svg>
