<svg xmlns="http://www.w3.org/2000/svg" width="334" height="709">
  <defs>
    <mask id="phoneCaseMask">
      <path d="M0 0 C1.26731964 -0.00379669 2.53463928 -0.00759338 3.84036255 -0.01150513 C7.31209562 -0.02118691 10.78331313 -0.00590397 14.2549839 0.01440096 C17.90041097 0.03202012 21.54582321 0.02844573 25.19128418 0.02767944 C31.3212948 0.02955223 37.45110741 0.04690164 43.58105469 0.07421875 C50.63881396 0.10555713 57.69635562 0.1162187 64.75417948 0.11474764 C72.29672616 0.1133885 79.83919038 0.12732887 87.38171196 0.14564085 C89.53913062 0.14987564 91.6965357 0.15131946 93.85395813 0.15211868 C97.90534393 0.15453105 101.95648165 0.174074 106.0078125 0.1953125 C107.18751617 0.19440613 108.36721985 0.19349976 109.58267212 0.19256592 C122.87101352 0.29365198 135.20654254 1.27026648 145.61914062 10.30615234 C151.93817955 16.93376429 155.6418553 25.946269 155.65028554 35.11625808 C155.65355774 36.04933726 155.65682993 36.98241643 155.66020128 37.94377074 C155.65871766 38.96755816 155.65723403 39.99134559 155.65570545 41.04615688 C155.65805768 42.13925528 155.66040991 43.23235368 155.66283342 44.35857627 C155.66953609 48.05306112 155.66906482 51.74751091 155.6686554 55.44200134 C155.67195324 58.10493592 155.67564078 60.76786739 155.67979687 63.4308005 C155.68912919 70.00233091 155.69304599 76.57385459 155.69531584 83.14539081 C155.6982763 91.01457769 155.70697284 98.88375562 155.71573012 106.75293782 C155.73658276 125.77540904 155.7470459 144.79788182 155.75585973 163.82036181 C155.76006537 172.81880219 155.7652875 181.8172419 155.77054426 190.81568171 C155.78843582 221.61571334 155.80343173 252.41574516 155.81086445 283.21578121 C155.81133921 285.14975464 155.8118151 287.08372806 155.81229211 289.01770148 C155.81252849 289.97678411 155.81276486 290.93586675 155.8130084 291.92401249 C155.81420961 296.78324466 155.81542505 301.64247682 155.81665039 306.50170898 C155.81689054 307.46604079 155.81713069 308.4303726 155.81737812 309.42392659 C155.82527033 340.68701613 155.84869985 371.95006773 155.88120633 403.2131407 C155.91550737 436.26244475 155.93521588 469.31172661 155.93850869 502.36104876 C155.93892623 505.98950963 155.93940579 509.61797049 155.93993187 513.24643135 C155.94005506 514.13986721 155.94017825 515.03330307 155.94030518 515.95381275 C155.94263695 530.32998496 155.95829576 544.70611309 155.97877372 559.0822696 C155.9990339 573.53493673 156.00450811 587.98755094 155.99500308 602.44022965 C155.98978875 611.02478272 155.99566234 619.60915957 156.01753775 628.19368727 C156.03105505 633.93235551 156.02996066 639.67090257 156.0171358 645.40957205 C156.01024522 648.67662203 156.01177321 651.94326899 156.02669588 655.21030187 C156.16396515 687.24936014 156.16396515 687.24936014 145.52148438 698.48583984 C144.9465625 699.11232422 144.37164062 699.73880859 143.77929688 700.38427734 C135.50229016 708.52390636 124.87022824 710.08995828 113.68115234 710.00050354 C112.55230558 710.00744907 111.42345882 710.0143946 110.26040459 710.0215506 C106.51128744 710.03971731 102.76281049 710.02958469 99.01367188 710.01928711 C96.31217513 710.02635074 93.61072251 710.03496198 90.90924072 710.0453949 C84.35352415 710.06695274 77.79798171 710.06692938 71.24224138 710.05876935 C65.91080587 710.05245075 60.57942085 710.05362337 55.24798584 710.06004143 C54.48707669 710.06094308 53.72616754 710.06184474 52.94220054 710.06277372 C51.39607571 710.06462505 49.8499509 710.06648761 48.30382609 710.06836127 C33.83062605 710.08491078 19.3575237 710.0762445 4.88432956 710.0593757 C-8.33739939 710.04467786 -21.5589011 710.0593133 -34.78060079 710.08814586 C-48.38189264 710.11758366 -61.98307978 710.1284996 -75.58440208 710.11896366 C-77.12460707 710.11794118 -78.66481207 710.11694657 -80.20501709 710.11598015 C-81.34151614 710.11526556 -81.34151614 710.11526556 -82.50097477 710.11453654 C-87.82151163 710.11237838 -93.14194864 710.12214438 -98.46246338 710.13675117 C-104.95291579 710.1543226 -111.44307856 710.15408847 -117.93351984 710.13139952 C-121.24053033 710.12030107 -124.54692957 710.11972666 -127.85393524 710.13570023 C-131.44916589 710.15168815 -135.04301707 710.13662323 -138.63818359 710.11402893 C-140.18432689 710.13178252 -140.18432689 710.13178252 -141.7617054 710.14989477 C-151.32243338 710.02844822 -160.90867548 706.99085812 -167.95507812 700.27099609 C-177.74159382 688.80320719 -178.9254284 676.58212705 -178.85946655 662.06219482 C-178.862927 660.39966756 -178.86769417 658.7371426 -178.87364829 657.07462239 C-178.88613418 652.52530393 -178.87999895 647.97617505 -178.87068963 643.42685604 C-178.86388981 638.5134295 -178.87438485 633.6000351 -178.88262939 628.68661499 C-178.89595776 619.06992058 -178.89309332 609.45329647 -178.88439147 599.83659932 C-178.87761339 592.02223762 -178.87669874 584.2078956 -178.87996292 576.3935318 C-178.88042262 575.28092382 -178.88088232 574.16831584 -178.88135595 573.02199246 C-178.88231513 570.76172818 -178.88328777 568.50146391 -178.88427372 566.24119964 C-178.89282458 545.05641751 -178.88299742 523.87167436 -178.86687262 502.68689862 C-178.85346233 484.5052762 -178.85580399 466.32371123 -178.86962891 448.14208984 C-178.88567734 427.02635542 -178.89200842 405.91065511 -178.88279212 384.79491544 C-178.88183646 382.54423857 -178.88089335 380.2935617 -178.87996292 378.04288483 C-178.87950009 376.93550665 -178.87903727 375.82812847 -178.87856042 374.68719338 C-178.87596887 366.87923011 -178.88034492 359.07128847 -178.88740158 351.26332855 C-178.89580826 341.75267811 -178.89355365 332.24210197 -178.87755935 322.73146006 C-178.86966658 317.87806703 -178.86660228 313.02479795 -178.87650681 308.17140579 C-178.8854329 303.73038892 -178.88055536 299.28961116 -178.86457415 294.84861603 C-178.86121759 293.24047668 -178.86294002 291.63231721 -178.87020151 290.02419075 C-178.87930662 287.840631 -178.86998586 285.65789336 -178.85603905 283.47437668 C-178.85555199 282.26089514 -178.85506493 281.04741361 -178.85456312 279.79715991 C-178.27435322 274.68806935 -176.31529428 271.4481353 -172.97851562 267.61083984 C-169.376843 264.8962787 -165.89630087 264.6708584 -161.47851562 264.85693359 C-156.8293705 265.83155907 -153.29858804 268.19315117 -149.33398438 270.73193359 C-139.30080701 276.89458289 -128.17010078 276.65087142 -116.75976562 276.68896484 C-116.10088852 276.69179222 -115.44201141 276.6946196 -114.76316833 276.69753265 C-111.27049367 276.71246779 -107.77785964 276.72173085 -104.28515625 276.72607422 C-100.72299756 276.73152527 -97.16122758 276.75549751 -93.59918976 276.78404617 C-90.82091277 276.80291118 -88.04272458 276.80789079 -85.26438904 276.8094101 C-83.32664517 276.81381289 -81.38894931 276.8323438 -79.45129395 276.85137939 C-59.30455825 276.80172077 -41.3520278 271.24486068 -26.26757812 257.46630859 C-14.46605313 245.28044275 -9.39087667 228.11196979 -9.3313446 211.45645142 C-9.32766792 210.78459537 -9.32399123 210.11273932 -9.32020313 209.420524 C-9.30926365 207.18789341 -9.3053391 204.95530951 -9.30151367 202.72265625 C-9.29524141 201.11375789 -9.28859395 199.50486096 -9.28160095 197.89596558 C-9.26064022 192.6264546 -9.25020266 187.35694361 -9.24023438 182.08740234 C-9.23618315 180.26541504 -9.23206612 178.44342789 -9.22788429 176.62144089 C-9.20884628 168.05442988 -9.1946151 159.48742738 -9.18627232 150.92039931 C-9.17651973 141.07124952 -9.15024617 131.22232566 -9.10977143 121.37325537 C-9.07947511 113.73554261 -9.06479052 106.09789409 -9.06149131 98.46012247 C-9.05915529 93.91058509 -9.05038626 89.36128941 -9.02503014 84.81181717 C-9.00150786 80.52218072 -8.99761156 76.23294095 -9.00779152 71.94325638 C-9.00828126 70.38297189 -9.00213019 68.82266624 -8.98823547 67.26244354 C-8.85354223 51.21879031 -11.39241137 34.11499623 -20.47851562 20.48583984 C-21.25844046 14.60095245 -20.91731554 9.46617076 -17.47851562 4.48583984 C-12.73617664 -1.03333778 -6.71889961 -0.06314404 0 0 Z " fill="white" transform="translate(178.478515625,-0.48583984375)"/>
    </mask>
  </defs>
</svg>
